<?xml version="1.0" encoding="UTF-8" standalone="no"?>
<!DOCTYPE svg PUBLIC "-//W3C//DTD SVG 1.1//EN"
 "http://www.w3.org/Graphics/SVG/1.1/DTD/svg11.dtd">
<!-- Generated by graphviz version 2.38.0 (20140413.2041)
 -->
<!-- Title: G Pages: 1 -->
<svg width="389pt" height="220pt"
 viewBox="0.00 0.00 388.55 220.00" xmlns="http://www.w3.org/2000/svg" xmlns:xlink="http://www.w3.org/1999/xlink">
<g id="graph0" class="graph" transform="scale(1 1) rotate(0) translate(4 216)">
<title>G</title>
<polygon fill="white" stroke="none" points="-4,4 -4,-216 384.548,-216 384.548,4 -4,4"/>
<g id="clust1" class="cluster"><title>cluster_Global</title>
<path fill="none" stroke="gray" d="M20,-44C20,-44 360.548,-44 360.548,-44 366.548,-44 372.548,-50 372.548,-56 372.548,-56 372.548,-192 372.548,-192 372.548,-198 366.548,-204 360.548,-204 360.548,-204 20,-204 20,-204 14,-204 8,-198 8,-192 8,-192 8,-56 8,-56 8,-50 14,-44 20,-44"/>
<text text-anchor="middle" x="190.274" y="-191.2" font-family="Times,serif" font-size="11.00" fill="gray">Global</text>
</g>
<g id="clust2" class="cluster"><title>cluster_\Battis</title>
<path fill="none" stroke="gray" d="M28,-52C28,-52 352.548,-52 352.548,-52 358.548,-52 364.548,-58 364.548,-64 364.548,-64 364.548,-165 364.548,-165 364.548,-171 358.548,-177 352.548,-177 352.548,-177 28,-177 28,-177 22,-177 16,-171 16,-165 16,-165 16,-64 16,-64 16,-58 22,-52 28,-52"/>
<text text-anchor="middle" x="190.274" y="-164.2" font-family="Times,serif" font-size="11.00" fill="gray">Battis</text>
</g>
<!-- \\Battis\\HierarchicalSimpleCache -->
<g id="node1" class="node"><title>\\Battis\\HierarchicalSimpleCache</title>
<polygon fill="none" stroke="black" points="356.46,-150 188.81,-150 188.81,-114 356.46,-114 356.46,-150"/>
<text text-anchor="middle" x="272.635" y="-128.7" font-family="Courier,monospace" font-size="11.00">HierarchicalSimpleCache</text>
</g>
<!-- \\Battis\\SimpleCache -->
<g id="node2" class="node"><title>\\Battis\\SimpleCache</title>
<polygon fill="none" stroke="black" points="112.419,-150 24.1932,-150 24.1932,-114 112.419,-114 112.419,-150"/>
<text text-anchor="middle" x="68.3059" y="-128.7" font-family="Courier,monospace" font-size="11.00">SimpleCache</text>
</g>
<!-- \\Battis\\HierarchicalSimpleCache&#45;&gt;\\Battis\\SimpleCache -->
<g id="edge1" class="edge"><title>\\Battis\\HierarchicalSimpleCache&#45;&gt;\\Battis\\SimpleCache</title>
<path fill="none" stroke="black" d="M188.756,-132C166.452,-132 142.922,-132 122.698,-132"/>
<polygon fill="none" stroke="black" points="122.447,-128.5 112.447,-132 122.447,-135.5 122.447,-128.5"/>
</g>
<!-- \\Battis\\SimpleCache_Exception -->
<g id="node3" class="node"><title>\\Battis\\SimpleCache_Exception</title>
<polygon fill="none" stroke="black" points="349.758,-96 195.512,-96 195.512,-60 349.758,-60 349.758,-96"/>
<text text-anchor="middle" x="272.635" y="-74.7" font-family="Courier,monospace" font-size="11.00">SimpleCache_Exception</text>
</g>
<!-- \\Exception -->
<g id="node4" class="node"><title>\\Exception</title>
<ellipse fill="none" stroke="black" cx="68.3059" cy="-18" rx="48.3341" ry="18"/>
<text text-anchor="middle" x="68.3059" y="-13.8" font-family="Times,serif" font-size="14.00" fill="gray">\Exception</text>
</g>
<!-- \\Battis\\SimpleCache_Exception&#45;&gt;\\Exception -->
<g id="edge2" class="edge"><title>\\Battis\\SimpleCache_Exception&#45;&gt;\\Exception</title>
<path fill="none" stroke="black" d="M210.93,-59.998C180.63,-51.0126 144.532,-40.3079 116.364,-31.9548"/>
<polygon fill="none" stroke="black" points="117.336,-28.5925 106.753,-29.1049 115.346,-35.3037 117.336,-28.5925"/>
</g>
</g>
</svg>
