<?xml version="1.0" encoding="UTF-8" standalone="no"?>
<!DOCTYPE svg PUBLIC "-//W3C//DTD SVG 1.1//EN"
 "http://www.w3.org/Graphics/SVG/1.1/DTD/svg11.dtd">
<!-- Generated by graphviz version 2.40.1 (20161225.0304)
 -->
<!-- Title: G Pages: 1 -->
<svg width="389pt" height="220pt"
 viewBox="0.00 0.00 388.55 220.00" xmlns="http://www.w3.org/2000/svg" xmlns:xlink="http://www.w3.org/1999/xlink">
<g id="graph0" class="graph" transform="scale(1 1) rotate(0) translate(4 216)">
<title>G</title>
<polygon fill="#ffffff" stroke="transparent" points="-4,4 -4,-216 384.5476,-216 384.5476,4 -4,4"/>
<g id="clust1" class="cluster">
<title>cluster_Global</title>
<path fill="none" stroke="#c0c0c0" d="M20,-44C20,-44 360.5476,-44 360.5476,-44 366.5476,-44 372.5476,-50 372.5476,-56 372.5476,-56 372.5476,-192 372.5476,-192 372.5476,-198 366.5476,-204 360.5476,-204 360.5476,-204 20,-204 20,-204 14,-204 8,-198 8,-192 8,-192 8,-56 8,-56 8,-50 14,-44 20,-44"/>
<text text-anchor="middle" x="190.2738" y="-191.2" font-family="Times,serif" font-size="11.00" fill="#c0c0c0">Global</text>
</g>
<g id="clust2" class="cluster">
<title>cluster_\Battis</title>
<path fill="none" stroke="#c0c0c0" d="M28,-52C28,-52 352.5476,-52 352.5476,-52 358.5476,-52 364.5476,-58 364.5476,-64 364.5476,-64 364.5476,-165 364.5476,-165 364.5476,-171 358.5476,-177 352.5476,-177 352.5476,-177 28,-177 28,-177 22,-177 16,-171 16,-165 16,-165 16,-64 16,-64 16,-58 22,-52 28,-52"/>
<text text-anchor="middle" x="190.2738" y="-164.2" font-family="Times,serif" font-size="11.00" fill="#c0c0c0">Battis</text>
</g>
<!-- \\Battis\\HierarchicalSimpleCache -->
<g id="node1" class="node">
<title>\\Battis\\HierarchicalSimpleCache</title>
<polygon fill="none" stroke="#000000" points="356.4601,-150 188.8105,-150 188.8105,-114 356.4601,-114 356.4601,-150"/>
<text text-anchor="middle" x="272.6353" y="-128.7" font-family="Courier,monospace" font-size="11.00" fill="#000000">HierarchicalSimpleCache</text>
</g>
<!-- \\Battis\\SimpleCache -->
<g id="node3" class="node">
<title>\\Battis\\SimpleCache</title>
<polygon fill="none" stroke="#000000" points="112.4186,-150 24.1932,-150 24.1932,-114 112.4186,-114 112.4186,-150"/>
<text text-anchor="middle" x="68.3059" y="-128.7" font-family="Courier,monospace" font-size="11.00" fill="#000000">SimpleCache</text>
</g>
<!-- \\Battis\\HierarchicalSimpleCache&#45;&gt;\\Battis\\SimpleCache -->
<g id="edge1" class="edge">
<title>\\Battis\\HierarchicalSimpleCache&#45;&gt;\\Battis\\SimpleCache</title>
<path fill="none" stroke="#000000" d="M188.6421,-132C166.4274,-132 143.0282,-132 122.8301,-132"/>
<polygon fill="none" stroke="#000000" points="122.5829,-128.5001 112.5828,-132 122.5828,-135.5001 122.5829,-128.5001"/>
</g>
<!-- \\Battis\\SimpleCache_Exception -->
<g id="node2" class="node">
<title>\\Battis\\SimpleCache_Exception</title>
<polygon fill="none" stroke="#000000" points="349.7583,-96 195.5122,-96 195.5122,-60 349.7583,-60 349.7583,-96"/>
<text text-anchor="middle" x="272.6353" y="-74.7" font-family="Courier,monospace" font-size="11.00" fill="#000000">SimpleCache_Exception</text>
</g>
<!-- \\Exception -->
<g id="node4" class="node">
<title>\\Exception</title>
<ellipse fill="none" stroke="#000000" cx="68.3059" cy="-18" rx="48.3341" ry="18"/>
<text text-anchor="middle" x="68.3059" y="-13.8" font-family="Times,serif" font-size="14.00" fill="#c0c0c0">\Exception</text>
</g>
<!-- \\Battis\\SimpleCache_Exception&#45;&gt;\\Exception -->
<g id="edge2" class="edge">
<title>\\Battis\\SimpleCache_Exception&#45;&gt;\\Exception</title>
<path fill="none" stroke="#000000" d="M211.3297,-59.998C180.8351,-51.0435 144.5258,-40.3815 116.1224,-32.041"/>
<polygon fill="none" stroke="#000000" points="117.009,-28.6536 106.4279,-29.1943 115.0367,-35.37 117.009,-28.6536"/>
</g>
</g>
</svg>
