<?xml version="1.0" encoding="UTF-8" standalone="no"?>
<!DOCTYPE svg PUBLIC "-//W3C//DTD SVG 1.1//EN"
 "http://www.w3.org/Graphics/SVG/1.1/DTD/svg11.dtd">
<!-- Generated by graphviz version 2.38.0 (20140413.2041)
 -->
<!-- Title: G Pages: 1 -->
<svg width="347pt" height="149pt"
 viewBox="0.00 0.00 347.46 149.00" xmlns="http://www.w3.org/2000/svg" xmlns:xlink="http://www.w3.org/1999/xlink">
<g id="graph0" class="graph" transform="scale(1 1) rotate(0) translate(4 145)">
<title>G</title>
<polygon fill="white" stroke="none" points="-4,4 -4,-145 343.457,-145 343.457,4 -4,4"/>
<g id="clust1" class="cluster"><title>cluster_Global</title>
<path fill="none" stroke="gray" d="M172.834,-8C172.834,-8 319.457,-8 319.457,-8 325.457,-8 331.457,-14 331.457,-20 331.457,-20 331.457,-121 331.457,-121 331.457,-127 325.457,-133 319.457,-133 319.457,-133 172.834,-133 172.834,-133 166.834,-133 160.834,-127 160.834,-121 160.834,-121 160.834,-20 160.834,-20 160.834,-14 166.834,-8 172.834,-8"/>
<text text-anchor="middle" x="246.145" y="-120.2" font-family="Times,serif" font-size="11.00" fill="gray">Global</text>
</g>
<!-- \\SimpleCache -->
<g id="node1" class="node"><title>\\SimpleCache</title>
<polygon fill="none" stroke="black" points="290.258,-106 202.033,-106 202.033,-70 290.258,-70 290.258,-106"/>
<text text-anchor="middle" x="246.145" y="-84.7" font-family="Courier,monospace" font-size="11.00">SimpleCache</text>
</g>
<!-- \\SimpleCache_Exception -->
<g id="node2" class="node"><title>\\SimpleCache_Exception</title>
<polygon fill="none" stroke="black" points="323.268,-52 169.022,-52 169.022,-16 323.268,-16 323.268,-52"/>
<text text-anchor="middle" x="246.145" y="-30.7" font-family="Courier,monospace" font-size="11.00">SimpleCache_Exception</text>
</g>
<!-- \\Exception -->
<g id="node3" class="node"><title>\\Exception</title>
<ellipse fill="none" stroke="black" cx="48.417" cy="-34" rx="48.3341" ry="18"/>
<text text-anchor="middle" x="48.417" y="-29.8" font-family="Times,serif" font-size="14.00" fill="gray">\Exception</text>
</g>
<!-- \\SimpleCache_Exception&#45;&gt;\\Exception -->
<g id="edge1" class="edge"><title>\\SimpleCache_Exception&#45;&gt;\\Exception</title>
<path fill="none" stroke="black" d="M168.911,-34C148.348,-34 126.444,-34 107.082,-34"/>
<polygon fill="none" stroke="black" points="106.911,-30.5001 96.9105,-34 106.91,-37.5001 106.911,-30.5001"/>
</g>
</g>
</svg>
