<?xml version="1.0" encoding="UTF-8" standalone="no"?>
<!DOCTYPE svg PUBLIC "-//W3C//DTD SVG 1.1//EN"
 "http://www.w3.org/Graphics/SVG/1.1/DTD/svg11.dtd">
<!-- Generated by graphviz version 2.38.0 (20140413.2041)
 -->
<!-- Title: G Pages: 1 -->
<svg width="402pt" height="184pt"
 viewBox="0.00 0.00 401.64 184.00" xmlns="http://www.w3.org/2000/svg" xmlns:xlink="http://www.w3.org/1999/xlink">
<g id="graph0" class="graph" transform="scale(1 1) rotate(0) translate(4 180)">
<title>G</title>
<polygon fill="white" stroke="none" points="-4,4 -4,-180 397.643,-180 397.643,4 -4,4"/>
<g id="clust1" class="cluster"><title>cluster_Global</title>
<path fill="none" stroke="gray" d="M211.02,-8C211.02,-8 373.643,-8 373.643,-8 379.643,-8 385.643,-14 385.643,-20 385.643,-20 385.643,-156 385.643,-156 385.643,-162 379.643,-168 373.643,-168 373.643,-168 211.02,-168 211.02,-168 205.02,-168 199.02,-162 199.02,-156 199.02,-156 199.02,-20 199.02,-20 199.02,-14 205.02,-8 211.02,-8"/>
<text text-anchor="middle" x="292.332" y="-155.2" font-family="Times,serif" font-size="11.00" fill="gray">Global</text>
</g>
<g id="clust2" class="cluster"><title>cluster_\Battis</title>
<path fill="none" stroke="gray" d="M219.02,-16C219.02,-16 365.643,-16 365.643,-16 371.643,-16 377.643,-22 377.643,-28 377.643,-28 377.643,-129 377.643,-129 377.643,-135 371.643,-141 365.643,-141 365.643,-141 219.02,-141 219.02,-141 213.02,-141 207.02,-135 207.02,-129 207.02,-129 207.02,-28 207.02,-28 207.02,-22 213.02,-16 219.02,-16"/>
<text text-anchor="middle" x="292.332" y="-128.2" font-family="Times,serif" font-size="11.00" fill="gray">Battis</text>
</g>
<!-- \\Battis\\SimpleCache -->
<g id="node1" class="node"><title>\\Battis\\SimpleCache</title>
<polygon fill="none" stroke="black" points="336.444,-114 248.219,-114 248.219,-78 336.444,-78 336.444,-114"/>
<text text-anchor="middle" x="292.332" y="-92.7" font-family="Courier,monospace" font-size="11.00">SimpleCache</text>
</g>
<!-- \\Battis\\SimpleCache_Exception -->
<g id="node2" class="node"><title>\\Battis\\SimpleCache_Exception</title>
<polygon fill="none" stroke="black" points="369.455,-60 215.209,-60 215.209,-24 369.455,-24 369.455,-60"/>
<text text-anchor="middle" x="292.332" y="-38.7" font-family="Courier,monospace" font-size="11.00">SimpleCache_Exception</text>
</g>
<!-- \\Battis\\Exception -->
<g id="node3" class="node"><title>\\Battis\\Exception</title>
<ellipse fill="none" stroke="black" cx="71.5102" cy="-42" rx="71.5204" ry="18"/>
<text text-anchor="middle" x="71.5102" y="-37.8" font-family="Times,serif" font-size="14.00" fill="gray">\Battis\Exception</text>
</g>
<!-- \\Battis\\SimpleCache_Exception&#45;&gt;\\Battis\\Exception -->
<g id="edge1" class="edge"><title>\\Battis\\SimpleCache_Exception&#45;&gt;\\Battis\\Exception</title>
<path fill="none" stroke="black" d="M215.106,-42C195.163,-42 173.596,-42 153.419,-42"/>
<polygon fill="none" stroke="black" points="153.326,-38.5001 143.326,-42 153.326,-45.5001 153.326,-38.5001"/>
</g>
</g>
</svg>
