<?xml version="1.0" encoding="UTF-8" standalone="no"?>
<!DOCTYPE svg PUBLIC "-//W3C//DTD SVG 1.1//EN"
 "http://www.w3.org/Graphics/SVG/1.1/DTD/svg11.dtd">
<!-- Generated by graphviz version 2.38.0 (20140413.2041)
 -->
<!-- Title: G Pages: 1 -->
<svg width="661pt" height="184pt"
 viewBox="0.00 0.00 661.29 184.00" xmlns="http://www.w3.org/2000/svg" xmlns:xlink="http://www.w3.org/1999/xlink">
<g id="graph0" class="graph" transform="scale(1 1) rotate(0) translate(4 180)">
<title>G</title>
<polygon fill="white" stroke="none" points="-4,4 -4,-180 657.292,-180 657.292,4 -4,4"/>
<g id="clust1" class="cluster"><title>cluster_Global</title>
<path fill="none" stroke="gray" d="M164.834,-8C164.834,-8 633.292,-8 633.292,-8 639.292,-8 645.292,-14 645.292,-20 645.292,-20 645.292,-156 645.292,-156 645.292,-162 639.292,-168 633.292,-168 633.292,-168 164.834,-168 164.834,-168 158.834,-168 152.834,-162 152.834,-156 152.834,-156 152.834,-20 152.834,-20 152.834,-14 158.834,-8 164.834,-8"/>
<text text-anchor="middle" x="399.063" y="-155.2" font-family="Times,serif" font-size="11.00" fill="gray">Global</text>
</g>
<g id="clust2" class="cluster"><title>cluster_\Battis</title>
<path fill="none" stroke="gray" d="M172.834,-16C172.834,-16 625.292,-16 625.292,-16 631.292,-16 637.292,-22 637.292,-28 637.292,-28 637.292,-129 637.292,-129 637.292,-135 631.292,-141 625.292,-141 625.292,-141 172.834,-141 172.834,-141 166.834,-141 160.834,-135 160.834,-129 160.834,-129 160.834,-28 160.834,-28 160.834,-22 166.834,-16 172.834,-16"/>
<text text-anchor="middle" x="399.063" y="-128.2" font-family="Times,serif" font-size="11.00" fill="gray">Battis</text>
</g>
<!-- \\Battis\\HierarchicalSimpleCache -->
<g id="node1" class="node"><title>\\Battis\\HierarchicalSimpleCache</title>
<polygon fill="none" stroke="black" points="596.199,-114 428.549,-114 428.549,-78 596.199,-78 596.199,-114"/>
<text text-anchor="middle" x="512.374" y="-92.7" font-family="Courier,monospace" font-size="11.00">HierarchicalSimpleCache</text>
</g>
<!-- \\Battis\\SimpleCache -->
<g id="node3" class="node"><title>\\Battis\\SimpleCache</title>
<polygon fill="none" stroke="black" points="290.258,-114 202.033,-114 202.033,-78 290.258,-78 290.258,-114"/>
<text text-anchor="middle" x="246.145" y="-92.7" font-family="Courier,monospace" font-size="11.00">SimpleCache</text>
</g>
<!-- \\Battis\\HierarchicalSimpleCache&#45;&gt;\\Battis\\SimpleCache -->
<g id="edge1" class="edge"><title>\\Battis\\HierarchicalSimpleCache&#45;&gt;\\Battis\\SimpleCache</title>
<path fill="none" stroke="black" d="M428.496,-96C386.895,-96 337.695,-96 301.044,-96"/>
<polygon fill="none" stroke="black" points="300.576,-92.5001 290.576,-96 300.576,-99.5001 300.576,-92.5001"/>
</g>
<!-- \\Battis\\HierarchicalSimpleCache_Exception -->
<g id="node2" class="node"><title>\\Battis\\HierarchicalSimpleCache_Exception</title>
<polygon fill="none" stroke="black" points="629.21,-60 395.539,-60 395.539,-24 629.21,-24 629.21,-60"/>
<text text-anchor="middle" x="512.374" y="-38.7" font-family="Courier,monospace" font-size="11.00">HierarchicalSimpleCache_Exception</text>
</g>
<!-- \\Battis\\SimpleCache_Exception -->
<g id="node4" class="node"><title>\\Battis\\SimpleCache_Exception</title>
<polygon fill="none" stroke="black" points="323.268,-60 169.022,-60 169.022,-24 323.268,-24 323.268,-60"/>
<text text-anchor="middle" x="246.145" y="-38.7" font-family="Courier,monospace" font-size="11.00">SimpleCache_Exception</text>
</g>
<!-- \\Battis\\HierarchicalSimpleCache_Exception&#45;&gt;\\Battis\\SimpleCache_Exception -->
<g id="edge2" class="edge"><title>\\Battis\\HierarchicalSimpleCache_Exception&#45;&gt;\\Battis\\SimpleCache_Exception</title>
<path fill="none" stroke="black" d="M395.48,-42C374.698,-42 353.372,-42 333.602,-42"/>
<polygon fill="none" stroke="black" points="333.416,-38.5001 323.416,-42 333.416,-45.5001 333.416,-38.5001"/>
</g>
<!-- \\Exception -->
<g id="node5" class="node"><title>\\Exception</title>
<ellipse fill="none" stroke="black" cx="48.417" cy="-42" rx="48.3341" ry="18"/>
<text text-anchor="middle" x="48.417" y="-37.8" font-family="Times,serif" font-size="14.00" fill="gray">\Exception</text>
</g>
<!-- \\Battis\\SimpleCache_Exception&#45;&gt;\\Exception -->
<g id="edge3" class="edge"><title>\\Battis\\SimpleCache_Exception&#45;&gt;\\Exception</title>
<path fill="none" stroke="black" d="M168.911,-42C148.348,-42 126.444,-42 107.082,-42"/>
<polygon fill="none" stroke="black" points="106.911,-38.5001 96.9105,-42 106.91,-45.5001 106.911,-38.5001"/>
</g>
</g>
</svg>
